HIERARCHY
ROOT Hips
{
  OFFSET 10.000000 -10.000000 0.000000
  CHANNELS 6 Xposition Yposition Zposition Xrotation Yrotation Zrotation
  JOINT Spine
  {
    OFFSET -12.846625 34.000423 26.668973
    CHANNELS 3 Xrotation Yrotation Zrotation
    JOINT Neck
    {
      OFFSET -8.565987 10.465851 10.311200
      CHANNELS 3 Xrotation Yrotation Zrotation
      JOINT Head
      {
        OFFSET -6.506337 -7.210322 3.531532
        CHANNELS 3 Xrotation Yrotation Zrotation
        End Site
        {
          OFFSET 0.0 10.0 0.0
        }
      }
    }
    JOINT LeftShoulder
    {
      OFFSET 16.191032 0.222631 5.090955
      CHANNELS 3 Xrotation Yrotation Zrotation
      JOINT LeftElbow
      {
        OFFSET 10.448869 -20.915173 1.238295
        CHANNELS 3 Xrotation Yrotation Zrotation
        JOINT LeftWrist
        {
          OFFSET 6.900823 -23.754111 0.858906
          CHANNELS 3 Xrotation Yrotation Zrotation
          End Site
          {
            OFFSET -10.0 0.0 0.0
          }
        }
      }
    }
    JOINT RightShoulder
    {
      OFFSET -16.191032 -0.222631 -5.090955
      CHANNELS 3 Xrotation Yrotation Zrotation
      JOINT RightElbow
      {
        OFFSET -13.712075 -14.695798 -8.321647
        CHANNELS 3 Xrotation Yrotation Zrotation
        JOINT RightWrist
        {
          OFFSET -17.210048 -12.326384 1.738171
          CHANNELS 3 Xrotation Yrotation Zrotation
          End Site
          {
            OFFSET 10.0 0.0 0.0
          }
        }
      }
    }
  }
  JOINT LeftHip
  {
    OFFSET 12.282434 0.310965 0.080493
    CHANNELS 3 Xrotation Yrotation Zrotation
    JOINT LeftKnee
    {
      OFFSET 9.663075 -41.630832 4.887251
      CHANNELS 3 Xrotation Yrotation Zrotation
      JOINT LeftAnkle
      {
        OFFSET -5.787469 -21.882853 -26.702196
        CHANNELS 3 Xrotation Yrotation Zrotation
        End Site
        {
          OFFSET 0.0 -5.0 10.0
        }
      }
    }
  }
  JOINT RightHip
  {
    OFFSET -12.282434 -0.310965 -0.080493
    CHANNELS 3 Xrotation Yrotation Zrotation
    JOINT RightKnee
    {
      OFFSET -1.472860 -28.795469 20.184857
      CHANNELS 3 Xrotation Yrotation Zrotation
      JOINT RightAnkle
      {
        OFFSET 0.086358 -39.286014 -3.546105
        CHANNELS 3 Xrotation Yrotation Zrotation
        End Site
        {
          OFFSET 0.0 -5.0 10.0
        }
      }
    }
  }
}
MOTION
Frames: 21
Frame Time: 0.033333
-0.008476 0.009565 -0.061147 -39.445042 10.201864 -167.805604 129.871249 21.504412 -173.851726 150.821871 -17.550943 -29.522700 0.000000 0.000000 0.000000 -26.221317 83.426936 90.000000 6.004270 -1.748122 -73.833661 0.000000 0.000000 0.000000 -139.851411 -58.116741 180.000000 5.245259 -7.016616 -143.369382 0.000000 0.000000 0.000000 -0.624666 -5.306193 -83.455468 -13.266179 52.391056 -106.531087 0.000000 0.000000 0.000000 -175.797007 -32.148997 -97.710431 -0.092741 4.521918 -91.387721 0.000000 0.000000 0.000000
-0.012854 0.010476 -0.064106 -39.602359 9.946871 -168.174360 129.829562 20.798248 -173.160009 147.918578 -18.579663 -27.804272 0.000000 0.000000 0.000000 -57.879830 82.992014 0.000000 10.642905 -2.726582 -74.989975 0.000000 0.000000 0.000000 -140.671454 -60.696742 180.000000 8.874357 -14.143776 -145.143777 0.000000 0.000000 0.000000 -0.523972 -4.664855 -83.819835 -13.147192 52.949717 -106.289066 0.000000 0.000000 0.000000 -176.521191 -31.403802 -96.495757 59.837303 4.347035 -92.369422 0.000000 0.000000 0.000000
-0.014556 0.011558 -0.066354 -38.534799 9.246432 -168.625584 130.986831 18.811280 -171.515200 139.731805 -19.728258 -21.870149 0.000000 0.000000 0.000000 -60.536511 80.002568 0.000000 34.651936 -13.710803 -78.240635 0.000000 0.000000 0.000000 -142.295730 -67.428373 180.000000 13.814560 -25.279864 -147.676112 0.000000 0.000000 0.000000 -0.371871 -4.039299 -84.686417 -12.513888 52.855030 -105.495004 0.000000 0.000000 0.000000 -177.803137 -28.734151 -94.549980 179.676893 5.484607 -93.461433 0.000000 0.000000 0.000000
-0.014700 0.009819 -0.067098 -34.675625 8.229265 -168.330816 134.318552 17.585382 -169.604764 131.984911 -16.469742 -15.917218 0.000000 0.000000 0.000000 -5.762868 72.069448 -60.000000 66.301146 -29.882174 -86.220855 0.000000 0.000000 0.000000 -94.895985 -18.266240 70.963888 17.946753 -36.182322 -150.922596 0.000000 0.000000 0.000000 -0.420289 -5.138222 -85.181793 -9.617406 49.505773 -102.432950 0.000000 0.000000 0.000000 -178.056853 -26.726884 -94.347011 60.198365 11.033189 -91.196273 0.000000 0.000000 0.000000
-0.012525 0.010815 -0.067179 -27.112995 6.554588 -167.382001 138.665349 15.067696 -167.396343 120.028805 -8.990782 -7.619989 0.000000 0.000000 0.000000 48.850510 60.883501 -0.000000 102.795466 -49.541844 -102.573811 0.000000 0.000000 0.000000 -38.255933 -25.632244 10.963888 18.800904 -42.908715 -153.262331 0.000000 0.000000 0.000000 -0.461063 -6.410409 -85.816963 -6.390852 44.829121 -98.835580 0.000000 0.000000 0.000000 -177.714776 -24.393135 -95.594889 -58.511623 17.728970 -86.856661 0.000000 0.000000 0.000000
-0.010867 0.013458 -0.065095 -19.806511 4.986316 -166.156491 143.359404 12.719382 -166.117208 109.458812 -1.536828 -1.322151 0.000000 0.000000 0.000000 41.877299 50.831210 -0.000000 126.571743 -61.818720 -124.349014 0.000000 0.000000 0.000000 18.216612 -25.319843 -49.036112 17.704318 -46.050874 -155.994853 0.000000 0.000000 0.000000 -0.356235 -7.264863 -87.178530 -3.175258 40.185159 -94.610811 0.000000 0.000000 0.000000 -177.169675 -23.156550 -97.183987 -176.658757 22.913968 -81.709762 0.000000 0.000000 0.000000
-0.007911 0.012844 -0.057695 -13.496376 3.667617 -164.951981 147.574820 12.583924 -164.578753 105.713332 2.569983 0.723783 0.000000 0.000000 0.000000 34.753773 46.982027 0.000000 35.154296 -67.838216 -33.862510 0.000000 0.000000 0.000000 -33.191861 -83.188782 60.000000 14.773572 -44.404078 -159.480358 0.000000 0.000000 0.000000 -0.165567 -5.099634 -89.169469 -0.158785 36.327884 -90.012851 0.000000 0.000000 0.000000 -176.831788 -21.775067 -98.505854 -175.498846 23.230735 -78.661684 0.000000 0.000000 0.000000
-0.009971 0.012456 -0.043124 -11.551612 3.356860 -164.008877 150.805163 13.960021 -164.634549 104.896828 3.494373 0.922824 0.000000 0.000000 0.000000 27.835133 48.003596 -0.000000 51.463082 -69.460559 -51.143688 0.000000 0.000000 0.000000 -34.910990 -83.492324 60.000000 11.190033 -40.666551 -163.259821 0.000000 0.000000 0.000000 -0.064389 -2.257348 -92.376920 5.061153 37.982096 -82.570785 0.000000 0.000000 0.000000 -176.799038 -20.343253 -99.167886 -174.983574 22.267692 -76.923402 0.000000 0.000000 0.000000
-0.011146 0.011380 -0.036180 -9.700424 2.936454 -163.119957 153.812000 17.400949 -165.085476 105.510252 3.364072 0.920806 0.000000 0.000000 0.000000 22.578908 50.530438 0.000000 19.531897 -69.581456 -20.085452 0.000000 0.000000 0.000000 -96.488951 -86.964730 120.000000 8.590677 -35.997085 -165.636124 0.000000 0.000000 0.000000 -0.307764 1.598264 -96.153533 16.678350 43.669694 -68.851318 0.000000 0.000000 0.000000 -176.156376 -20.160979 -100.866181 -174.924186 20.248998 -75.502857 0.000000 0.000000 0.000000
-0.010721 0.006320 -0.037421 -8.456588 2.700424 -162.279313 156.522866 19.056770 -165.990551 103.289492 2.626670 0.645763 0.000000 0.000000 0.000000 21.925016 55.702362 -0.000000 87.480420 -62.218186 -90.789331 0.000000 0.000000 0.000000 -36.692571 -87.000414 60.000000 8.122743 -36.190585 -166.436451 0.000000 0.000000 0.000000 -0.629310 3.234767 -99.890661 29.369425 49.743812 -54.555489 0.000000 0.000000 0.000000 -174.682171 -21.528912 -103.904814 -174.490281 18.934465 -73.291439 0.000000 0.000000 0.000000
-0.006269 0.002763 -0.043460 -7.830193 2.583856 -161.851515 155.989494 19.314013 -166.541968 102.605084 1.541655 0.363258 0.000000 0.000000 0.000000 24.594342 61.857838 -0.000000 34.954706 -47.157635 -45.959065 0.000000 0.000000 0.000000 -35.744763 -86.388972 60.000000 9.162532 -35.868088 -164.673559 0.000000 0.000000 0.000000 -0.814112 3.841753 -102.020446 36.698771 51.431880 -46.398513 0.000000 0.000000 0.000000 -172.780057 -23.127322 -107.780584 -173.362646 18.782161 -70.300758 0.000000 0.000000 0.000000
-0.006935 0.002775 -0.048866 -11.533986 3.571741 -162.689277 152.984339 18.215259 -168.258045 103.137972 0.810073 0.173437 0.000000 0.000000 0.000000 32.421925 71.335621 -0.000000 23.740423 -30.532274 -42.383723 0.000000 0.000000 0.000000 -31.030764 -86.091383 -60.000000 12.298159 -36.530579 -159.898676 0.000000 0.000000 0.000000 0.367187 -2.181111 -102.210211 31.715389 45.332236 -49.217430 0.000000 0.000000 0.000000 -171.633375 -22.244703 -111.380917 -171.395204 20.624587 -67.066541 0.000000 0.000000 0.000000
-0.007088 0.001273 -0.047301 -16.502571 4.780122 -163.938304 150.250740 16.767083 -170.218068 103.268425 0.908648 0.195937 0.000000 0.000000 0.000000 40.448592 78.259594 -0.000000 21.978257 -22.306091 -46.685418 0.000000 0.000000 0.000000 -83.964624 -84.485135 0.000000 16.154613 -35.434366 -153.561434 0.000000 0.000000 0.000000 2.672642 -12.009195 -102.507555 21.774266 36.068430 -56.637197 0.000000 0.000000 0.000000 -169.552135 -22.280215 -115.762590 -168.809575 23.324593 -63.698056 0.000000 0.000000 0.000000
-0.006216 0.001324 -0.047441 -22.069362 5.737699 -165.956788 149.630198 15.859624 -172.448974 103.488427 0.825312 0.182909 0.000000 0.000000 0.000000 49.597452 83.815496 -0.000000 23.209315 -21.000307 -50.048372 0.000000 0.000000 0.000000 -134.152891 -80.640540 60.000000 20.569677 -33.631703 -145.887362 0.000000 0.000000 0.000000 5.682526 -23.944866 -103.414869 12.267541 24.601410 -63.585464 0.000000 0.000000 0.000000 -167.360807 -22.059097 -120.464121 -166.756424 23.943863 -59.909108 0.000000 0.000000 0.000000
-0.009932 0.002889 -0.047811 -26.169859 5.811653 -168.131267 148.470275 13.829407 -174.372095 103.896678 1.770929 0.483935 0.000000 0.000000 0.000000 -2.402945 85.730057 60.000000 25.819522 -20.079511 -54.551653 0.000000 0.000000 0.000000 -125.734813 -74.752943 60.000000 24.714861 -31.050930 -138.267000 0.000000 0.000000 0.000000 8.174943 -31.214782 -105.370519 6.525327 16.212818 -68.805750 0.000000 0.000000 0.000000 -164.178450 -23.688496 -125.080865 -165.934906 23.445878 -57.725230 0.000000 0.000000 0.000000
-0.008715 0.007530 -0.047319 -29.227248 4.988171 -170.974724 147.118640 12.168276 -176.277859 106.330543 1.004220 0.272367 0.000000 0.000000 0.000000 -54.198068 82.988840 0.000000 30.589702 -18.587294 -60.818624 0.000000 0.000000 0.000000 -118.422826 -64.237721 60.000000 29.119371 -27.340214 -129.702342 0.000000 0.000000 0.000000 10.048498 -35.878500 -106.770244 3.565182 10.595318 -71.995612 0.000000 0.000000 0.000000 -163.789845 -23.013027 -126.570015 -165.721468 22.732493 -56.632888 0.000000 0.000000 0.000000
-0.008066 0.011307 -0.048810 -31.811679 3.535412 -174.158562 145.905756 11.050026 -58.396822 108.589969 0.317353 0.079010 0.000000 0.000000 0.000000 -105.958856 76.496992 60.000000 45.581078 -17.559629 -70.873301 0.000000 0.000000 0.000000 -112.730438 -47.520020 60.000000 36.446562 -24.731999 -120.325347 0.000000 0.000000 0.000000 12.397419 -39.266128 -109.052171 2.272646 7.882089 -73.948560 0.000000 0.000000 0.000000 -161.927122 -25.364950 -127.298250 -166.578182 21.066301 -56.277283 0.000000 0.000000 0.000000
-0.012104 0.015307 -0.054211 -30.618628 1.790079 -177.190255 146.153577 9.647974 -59.301684 109.609187 -2.317620 -0.849686 0.000000 0.000000 0.000000 -99.100273 65.338806 60.000000 63.314739 -16.307354 -80.627855 0.000000 0.000000 0.000000 -110.630671 -29.351404 180.000000 47.935364 -22.838902 -110.504927 0.000000 0.000000 0.000000 15.096509 -43.653141 -111.237894 1.434044 5.305965 -75.584114 0.000000 0.000000 0.000000 -161.011283 -29.109773 -125.573792 -169.298004 16.798604 -56.989375 0.000000 0.000000 0.000000
-0.018051 0.015654 -0.059943 -30.974202 -0.087123 -60.167613 146.430162 5.021376 -59.162686 111.039138 -1.616198 -0.580218 0.000000 0.000000 0.000000 -95.451856 29.094691 180.000000 81.247205 -16.140150 -87.479483 0.000000 0.000000 0.000000 -106.977879 -17.240262 180.000000 68.575167 -18.154673 -100.100974 0.000000 0.000000 0.000000 19.143916 -49.559582 -114.477445 0.442165 1.005576 -77.640275 0.000000 0.000000 0.000000 -46.259326 -21.021765 -120.412214 -168.155270 18.808614 -56.889292 0.000000 0.000000 0.000000
-0.022101 0.019027 -0.069490 -33.969803 -1.973323 57.586045 146.821080 1.217440 -60.150342 112.430848 -1.400972 -0.515076 0.000000 0.000000 0.000000 -95.214872 -15.310103 60.000000 87.515624 -13.329274 -89.408946 0.000000 0.000000 0.000000 -104.098447 -15.372877 180.000000 92.749344 -13.715280 -91.440351 0.000000 0.000000 0.000000 21.928300 -52.013214 -117.062338 0.533382 1.651832 -78.101825 0.000000 0.000000 0.000000 66.699109 -10.984518 -113.920555 -163.381667 27.818172 -56.906777 0.000000 0.000000 0.000000
-0.021549 0.018348 -0.069304 -40.128510 -3.853360 175.683024 147.237235 -2.217373 58.772522 112.948827 -0.356475 -0.140507 0.000000 0.000000 0.000000 -97.128850 -56.399942 60.000000 87.536933 -10.357578 -89.832633 0.000000 0.000000 0.000000 -99.280426 -14.628253 180.000000 105.679488 -9.809472 -87.143365 0.000000 0.000000 0.000000 24.217610 -52.668117 -119.567045 1.369636 4.566282 -77.022458 0.000000 0.000000 0.000000 60.141840 -0.624398 -108.497120 -152.066697 45.195561 -52.762140 0.000000 0.000000 0.000000
